<!DOCTYPE svg PUBLIC "-//W3C//DTD SVG 1.1//EN" "http://www.w3.org/Graphics/SVG/1.1/DTD/svg11.dtd">
<!-- Uploaded to: SVG Repo, www.svgrepo.com, Transformed by: SVG Repo Mixer Tools -->
<svg fill="#00005B" version="1.1" xmlns="http://www.w3.org/2000/svg" xmlns:xlink="http://www.w3.org/1999/xlink" width="800px" height="800px" viewBox="-51.2 -51.2 614.40 614.40" enable-background="new 0 0 512 512" xml:space="preserve" stroke="#00005B">
<g id="SVGRepo_bgCarrier" stroke-width="0">
<path transform="translate(-51.2, -51.2), scale(19.2)" d="M16,30.01307485039745C17.919908713479682,29.788858608105247,19.658009397619146,28.960000491937663,21.467403815606275,28.279990027635925C23.36334729506221,27.56745251069756,25.60267159258948,27.371451830757426,26.980087332370005,25.886515040809435C28.35773171636523,24.40133175868308,28.205796458221226,22.09152632692828,28.95398611688423,20.20900523410331C29.750461912950577,18.204991320440282,31.732439975691047,16.514178048433557,31.559341347219316,14.364647326462896C31.386903945621363,12.223327689074033,29.355893617044206,10.749545174489969,28.054584856293978,9.040282188249488C26.871200508436825,7.485912368190467,25.888514478377566,5.698110451835087,24.20575544911175,4.705746556034777C22.557366875743302,3.7336517533853892,20.501998921663258,4.007559752529423,18.65728328117954,3.4984650659490537C16.69929738012572,2.958110662945022,14.955940563148676,1.3613657177361915,12.938386006999636,1.5962386249299065C10.92792956398504,1.8302852077685272,9.118751046811528,3.195708352759997,7.832652570490396,4.758610659816263C6.602870920037546,6.253075208259055,7.019006737222179,8.59111256751384,5.889242845395268,10.162551635078016C4.598800289016539,11.957485835233534,1.1163116857137014,12.212833182026216,0.8923938168208334,14.412126605421937C0.6680858949061931,16.61525108102355,3.8477633125630195,17.66449128436909,4.92865792458301,19.59729710403508C5.7801289465008345,21.11985825674927,5.763747046466951,22.95453768102012,6.542569085393474,24.515509044179126C7.4654451810725595,26.365203948915834,8.145710334623224,28.588197136401888,9.932845726670635,29.627051610847836C11.704176755382338,30.656719073699627,13.964970241118781,30.250735486179543,16,30.01307485039745" fill="#9A9AFE" strokewidth="0"/>
</g>
<g id="SVGRepo_tracerCarrier" stroke-linecap="round" stroke-linejoin="round"/>
<g id="SVGRepo_iconCarrier"> <g id="2069a460dcf28295e231f3111e02fda7"> <path display="inline" d="M177.275,213.286l19.188,60.088h-62.624l18.822-60.088c4.346-14.48,7.963-31.493,11.585-45.611h0.724 C168.588,181.793,172.572,198.444,177.275,213.286z M373.819,226.316c-27.513,0-39.095,24.978-40.907,43.074h77.465 C410.743,253.104,403.503,226.316,373.819,226.316z M511.5,85.667v340.667c0,46.842-38.325,85.167-85.167,85.167H85.667 C38.825,511.5,0.5,473.175,0.5,426.333V85.667C0.5,38.825,38.825,0.5,85.667,0.5h340.667C473.175,0.5,511.5,38.825,511.5,85.667z M273.928,376.182l-79.274-243.981h-56.834L59.63,376.182h45.973l20.997-69.14h77.465l22.082,69.14H273.928z M452.37,281.699 c0-38.73-18.826-85.79-76.019-85.79c-56.469,0-86.151,45.973-86.151,94.84c0,53.936,33.663,89.051,90.859,89.051 c25.338,0,46.334-4.708,61.538-10.862l-6.517-30.765c-13.395,5.064-28.236,7.959-48.871,7.959 c-28.232,0-53.208-13.752-54.298-45.61h118.011C451.646,296.541,452.37,290.025,452.37,281.699z"> </path> </g> </g>
</svg>