<!DOCTYPE svg PUBLIC "-//W3C//DTD SVG 1.1//EN" "http://www.w3.org/Graphics/SVG/1.1/DTD/svg11.dtd">
<!-- Uploaded to: SVG Repo, www.svgrepo.com, Transformed by: SVG Repo Mixer Tools -->
<svg fill="#320000" version="1.1" xmlns="http://www.w3.org/2000/svg" xmlns:xlink="http://www.w3.org/1999/xlink" width="800px" height="800px" viewBox="-51.2 -51.2 614.40 614.40" enable-background="new 0 0 512 512" xml:space="preserve">
<g id="SVGRepo_bgCarrier" stroke-width="0">
<path transform="translate(-51.2, -51.2), scale(19.2)" d="M16,29.441419603096115C17.930829271729092,30.500159037003176,20.48702653321553,31.48477374500302,22.44984167110393,30.48658157915925C24.449723616403805,29.46953904067632,24.037535596317674,26.256139095802077,25.53998987623148,24.589845467119275C27.043831708802802,22.92201297620047,29.934804177470696,22.82861474392475,31.090833136558786,20.903308918632156C32.23224908592312,19.00234029745978,32.06075328640801,16.536869711420056,31.687699490062418,14.35115634201925C31.32246491558378,12.211255608598368,30.412729942902658,10.135484955730004,28.97533988991408,8.508684021731222C27.61042246710931,6.963905738596932,25.34105929107803,6.645765604448455,23.736271598179123,5.351935640411627C22.037135034825326,3.982038669998988,21.249469161769344,1.5663478228128764,19.257646883665764,0.6739763850574185C17.234172415465775,-0.2325757909571453,14.771417582310004,-0.3478045569393512,12.684206004519165,0.4004157320329824C10.61488590442384,1.1422223125179152,8.664271448993208,2.72985761779398,7.838981337962911,4.7673214609443C6.986997536708156,6.870686285998659,9.421387156566277,9.584560165890476,8.191559249738233,11.49179463088512C6.865093802225448,13.548895957074704,2.884938037818099,12.41693436385779,1.5736235244374797,14.483726732881244C0.49659882142973055,16.181249649551702,1.7423369301755212,18.53043645996171,2.560720438248614,20.366686632793364C3.3502839684414023,22.138271903605773,4.429008749106156,24.01654240461018,6.187210681904345,24.835475187855963C7.987938143245477,25.67421545100438,10.283198912622199,23.957172203596848,12.081438553931594,24.801233108672903C13.934316335791548,25.670940160850463,14.20526677044875,28.45730626314884,16,29.441419603096115" fill="#FF9A00" strokewidth="0"/>
</g>
<g id="SVGRepo_tracerCarrier" stroke-linecap="round" stroke-linejoin="round"/>
<g id="SVGRepo_iconCarrier"> <g id="2069a460dcf28295e231f3111e03585e"> <path display="inline" d="M227.593,217.991l19.188,60.091h-62.627l18.825-60.091c4.346-14.48,7.964-31.493,11.582-45.611h0.724 C218.906,186.499,222.886,203.149,227.593,217.991z M511.5,85.667v340.667c0,46.842-38.325,85.167-85.167,85.167H85.667 C38.825,511.5,0.5,473.175,0.5,426.333V85.667C0.5,38.825,38.825,0.5,85.667,0.5h340.667C473.175,0.5,511.5,38.825,511.5,85.667z M324.246,380.885l-79.279-243.977h-56.83l-78.189,243.977h45.973l20.997-69.14h77.465l22.082,69.14H324.246z M399.52,204.597 h-44.888v176.288h44.888V204.597z M402.052,155.368c-0.362-13.756-9.772-24.252-24.977-24.252 c-14.842,0-24.976,10.496-24.976,24.252c0,13.395,9.772,23.891,24.614,23.891C392.279,179.258,402.052,168.762,402.052,155.368z"> </path> </g> </g>
</svg>