<!DOCTYPE svg PUBLIC "-//W3C//DTD SVG 1.1//EN" "http://www.w3.org/Graphics/SVG/1.1/DTD/svg11.dtd">
<!-- Uploaded to: SVG Repo, www.svgrepo.com, Transformed by: SVG Repo Mixer Tools -->
<svg fill="#001025" version="1.1" xmlns="http://www.w3.org/2000/svg" xmlns:xlink="http://www.w3.org/1999/xlink" width="800px" height="800px" viewBox="-51.2 -51.2 614.40 614.40" enable-background="new 0 0 512 512" xml:space="preserve">
<g id="SVGRepo_bgCarrier" stroke-width="0">
<path transform="translate(-51.2, -51.2), scale(19.2)" d="M16,31.964606161628453C18.40420964208191,32.12276911901885,19.36257327011618,28.531856285283617,21.493691451426244,27.407767845053137C23.523390728803374,26.33717424078796,26.45092526755061,27.25551741123014,28.049327377423687,25.6090179374276C29.62162840415171,23.989404951948963,29.045584866524152,21.29283688291896,29.562984318182288,19.095662663881043C30.083840185509693,16.883810525540248,31.508413914226015,14.787586624669105,31.125033369425758,12.54780983349531C30.739661512790576,10.296399447209954,28.867633092939062,8.659681583165836,27.467725974168324,6.854793704605221C26.052994080467553,5.0307923747199865,25.072359491009774,2.3419408802496777,22.81938213471592,1.8394070858592606C20.431174737982943,1.3067097990806071,18.446017442041914,4.231309144592484,16,4.296880802937917C13.648553242364384,4.359917255891597,11.490988544267655,1.216260394366306,9.354447752608671,2.200368566252525C7.235130674867797,3.1765433545669373,8.175784724870203,6.776203918649332,6.697646751287202,8.581620830167761C5.192062086956085,10.420561486104816,1.8364714092037824,10.372941633215943,0.8815247801273873,12.549306688334886C-0.03225292161898241,14.631845960871134,1.4557960845773241,16.988596674486764,2.0450332547850607,19.18513009492686C2.6172622950267397,21.31826132728628,2.6296593861666246,23.888624906073552,4.308371839877555,25.32376233040579C6.0223789199639075,26.789073260079704,8.882943960395654,25.593435671652482,10.843708446375844,26.707149738065766C13.00519165449648,27.93487202210982,13.519539514558335,31.801426978249193,16,31.964606161628453" fill="#7ed0ec" strokewidth="0"/>
</g>
<g id="SVGRepo_tracerCarrier" stroke-linecap="round" stroke-linejoin="round"/>
<g id="SVGRepo_iconCarrier"> <g id="2069a460dcf28295e231f3111e03674e"> <path display="inline" d="M426.333,0.5H85.667C38.825,0.5,0.5,38.825,0.5,85.667v340.667c0,46.842,38.325,85.167,85.167,85.167 h340.667c46.842,0,85.167-38.325,85.167-85.167V85.667C511.5,38.825,473.175,0.5,426.333,0.5z M263.065,377.99H118.271V134.01 h44.523v206.695h100.271V377.99z M393.73,240.796c-3.622-0.724-7.602-1.447-13.033-1.447c-21.357,0-35.838,13.756-39.821,33.664 c-0.724,3.983-1.447,8.687-1.447,13.756v91.222h-44.521V258.532c0-23.891-0.366-40.903-1.447-56.83h38.732l1.447,33.663h1.447 c8.688-24.976,29.317-37.647,48.144-37.647c4.346,0,6.878,0.362,10.5,1.089V240.796z"> </path> </g> </g>
</svg>