<!DOCTYPE svg PUBLIC "-//W3C//DTD SVG 1.1//EN" "http://www.w3.org/Graphics/SVG/1.1/DTD/svg11.dtd">
<!-- Uploaded to: SVG Repo, www.svgrepo.com, Transformed by: SVG Repo Mixer Tools -->
<svg fill="#001E36" version="1.1" xmlns="http://www.w3.org/2000/svg" xmlns:xlink="http://www.w3.org/1999/xlink" width="800px" height="800px" viewBox="-51.2 -51.2 614.40 614.40" enable-background="new 0 0 512 512" xml:space="preserve">
<g id="SVGRepo_bgCarrier" stroke-width="0" transform="translate(0,0), scale(1)">
<path transform="translate(-51.2, -51.2), scale(19.2)" d="M16,28.969334253274344C18.355468496611238,28.83338964189505,20.892760754416717,30.39898310391089,22.968519006329128,29.277403657100002C25.046988013297213,28.15435952761088,25.529593439907643,25.41057227321879,26.53926502447644,23.27472939018146C27.419227492415235,21.4132710672856,27.943031880734285,19.495628528323884,28.52611927683305,17.52094624467166C29.211917931342743,15.198422276097594,30.80339822071233,12.947562572052638,30.287333885668904,10.58152897524457C29.767896740330855,8.200031836527415,28.029611019124605,5.905630249509128,25.785255385641896,4.954729960241448C23.525711443766518,3.9973946093335306,20.943760741501844,6.196527658950037,18.56018761391747,5.612910537181531C16.1822948735633,5.030684256418678,14.920736936516214,1.7857932445379674,12.474266940909356,1.6955386754824744C10.109977483924798,1.6083158906350126,8.085060326741564,3.5031522058805096,6.400421133341517,5.164315424431091C4.758187103438685,6.783664408720611,3.983111285920386,8.985749053250236,2.9765829945875772,11.060869420996902C1.885530148447322,13.310250787431833,-0.8415636866125102,15.650844480137813,0.21495487081241826,17.916651484838827C1.431726404196891,20.526136613224022,6.258699670666862,19.22541880437934,7.889914566599776,21.59798778398876C9.526109086261181,23.977799525307752,6.45897844096941,28.164419172676148,8.59612850014716,30.10689853031326C10.471104781111864,31.811085237368548,13.470479230677606,29.11532419899262,16,28.969334253274344" fill="#31A8FF" strokewidth="0"/>
</g>
<g id="SVGRepo_tracerCarrier" stroke-linecap="round" stroke-linejoin="round"/>
<g id="SVGRepo_iconCarrier"> <g id="2069a460dcf28295e231f3111e037552"> <path display="inline" d="M426.333,0.5H85.667C38.825,0.5,0.5,38.825,0.5,85.667v340.667c0,46.842,38.325,85.167,85.167,85.167 h340.667c46.842,0,85.167-38.325,85.167-85.167V85.667C511.5,38.825,473.175,0.5,426.333,0.5z M245.329,260.524 c-17.736,17.736-45.611,26.065-77.103,26.065c-8.326,0-15.927-0.365-21.72-1.451v91.945h-44.159V136.363 c15.927-2.895,38.009-5.069,68.05-5.069c32.582,0,56.473,6.878,72.039,19.911c14.48,11.947,23.89,31.131,23.89,53.936 C266.325,228.309,259.086,247.492,245.329,260.524z M337.981,380.706c-21.358,0-40.542-5.069-53.574-12.31l8.687-32.216 c10.135,6.154,29.322,12.671,45.249,12.671c19.545,0,28.236-7.964,28.236-19.549c0-11.943-7.239-18.099-28.96-25.7 c-34.391-11.947-48.866-30.769-48.505-51.403c0-31.131,25.7-55.383,66.604-55.383c19.549,0,36.562,5.069,46.695,10.496 l-8.687,31.493c-7.602-4.342-21.721-10.135-37.285-10.135c-15.928,0-24.615,7.602-24.615,18.46c0,11.224,8.326,16.655,30.77,24.618 c31.854,11.582,46.696,27.871,47.058,53.937C409.653,357.539,384.678,380.706,337.981,380.706z M221.8,206.95 c0,28.598-20.273,44.887-53.574,44.887c-9.049,0-16.289-0.362-21.72-1.809v-82.534c4.708-1.085,13.395-2.171,25.704-2.171 C202.979,165.323,221.8,179.803,221.8,206.95z"> </path> </g> </g>
</svg>