<!DOCTYPE svg PUBLIC "-//W3C//DTD SVG 1.1//EN" "http://www.w3.org/Graphics/SVG/1.1/DTD/svg11.dtd">
<!-- Uploaded to: SVG Repo, www.svgrepo.com, Transformed by: SVG Repo Mixer Tools -->
<svg fill="#00005B" version="1.1" xmlns="http://www.w3.org/2000/svg" xmlns:xlink="http://www.w3.org/1999/xlink" width="800px" height="800px" viewBox="-51.2 -51.2 614.40 614.40" enable-background="new 0 0 512 512" xml:space="preserve">
<g id="SVGRepo_bgCarrier" stroke-width="0">
<path transform="translate(-51.2, -51.2), scale(19.2)" d="M16,30.889633960194057C18.120600147457463,29.82288656303057,18.043549909558095,26.377499830591578,20.069748734720797,25.14080531873306C21.73595366186347,24.12383380367777,24.224132989990224,25.945742813982225,25.855750029705412,24.87415718633531C27.38280958599671,23.87124104041894,27.292458050081116,21.579762659283006,28.034098303407546,19.910115565180114C28.8486462045467,18.076332231488824,30.54982964413819,16.483889105580175,30.473262461868266,14.478798817145917C30.397121813559924,12.48487831554057,28.450090196405252,11.104673182248566,27.628414238076186,9.286331909398239C26.717891068002608,7.271374743804436,27.070174855403007,4.520501989630037,25.347113075316855,3.134802554534172C23.643359800206838,1.7646311665154346,21.073003047897746,2.638719335712671,18.916282586022973,2.2799691380486617C16.849690096121243,1.9362108822389426,14.911327910523159,0.8897490542420409,12.822590991530241,1.0514659086250742C10.645311385518148,1.220038027878068,8.384362358591865,1.812966947049342,6.717984261862872,3.224401352499159C5.065900530197201,4.6237283264518645,4.189100085828463,6.762136772671678,3.6155937686586235,8.849859728581368C3.0939188174540786,10.748902055660498,3.821404250230167,12.740336736454855,3.567433571111332,14.693284613101925C3.306402651133456,16.70052333325156,1.0039744846435026,18.81413314502993,2.098353636888641,20.516918713439427C3.3528582622003498,22.468849511007512,7.257648408004911,20.760860033895828,8.656729268038209,22.611910665432347C10.253896630513873,24.725039176753512,7.823324377714295,28.435498459368322,9.581138331992541,30.416999352948878C11.020607587803779,32.03964525909249,14.062248583132634,31.8644010716514,16,30.889633960194057" fill="#9A9AFF" strokewidth="0"/>
</g>
<g id="SVGRepo_tracerCarrier" stroke-linecap="round" stroke-linejoin="round"/>
<g id="SVGRepo_iconCarrier"> <g id="2069a460dcf28295e231f3111e037ab6"> <path display="inline" d="M227.955,208.761c0,28.596-20.273,44.887-53.575,44.887c-9.053,0-16.289-0.364-21.72-1.811v-82.532 c4.708-1.087,13.395-2.173,25.7-2.173C209.133,167.132,227.955,181.612,227.955,208.761z M511.5,85.667v340.667 c0,46.842-38.325,85.167-85.167,85.167H85.667C38.825,511.5,0.5,473.175,0.5,426.333V85.667C0.5,38.825,38.825,0.5,85.667,0.5 h340.667C473.175,0.5,511.5,38.825,511.5,85.667z M272.477,206.95c0-22.803-9.407-41.989-23.887-53.934 c-15.569-13.033-39.456-19.911-72.038-19.911c-30.045,0-52.127,2.173-68.054,5.069v240.718h44.164v-91.944 c5.793,1.089,13.395,1.451,21.72,1.451c31.493,0,59.363-8.33,77.104-26.062C265.24,249.303,272.477,230.117,272.477,206.95z M403.503,199.712c-3.622-0.726-6.154-1.087-10.5-1.087c-18.826,0-39.456,12.671-48.144,37.647h-1.447l-1.447-33.666h-38.732 c1.081,15.927,1.447,32.942,1.447,56.833v119.453h44.521v-91.222c0-5.064,0.724-9.772,1.447-13.752 c3.983-19.909,18.464-33.665,39.821-33.665c5.432,0,9.411,0.724,13.033,1.447V199.712z"> </path> </g> </g>
</svg>